<svg xmlns="http://www.w3.org/2000/svg" version="1.1" xmlns:xlink="http://www.w3.org/1999/xlink" xmlns:svgjs="http://svgjs.dev/svgjs" width="100%" height="100%" viewBox="0 0 1000 600"><rect width="1000" height="600" x="0" y="0" fill="none"/><g><circle r="166.66666666666666" cx="405.30317179361975" cy="427.52530129613797" fill="#b58863" transform="matrix(0.5238093502538176,0,0,0.5238093502538175,0,76.0582352999346)"/><path d="M308.9262107692165 496.4734930365132L308.9262107692165 496.4734930365132L290.95150308319927 502.5252790413532L289.41597529092644 501.01985963716413Q289.8676011121832 478.2579182458258 290.40955209769123 455.37554330215227Q290.95150308319927 432.5232767465626 290.95150308319927 409.52046825055396L290.95150308319927 409.52046825055396Q290.95150308319927 400.0062176160792 290.6203108142777 390.3414250411855Q290.2891185453561 380.7067408543756 289.8676011121832 371.1623818318171L289.8676011121832 371.1623818318171Q289.41597529092644 364.6589700057204 284.7792835260242 362.4911660636882Q280.1124833730382 360.323362121656 273.81983026352793 359.4502188672263L273.81983026352793 359.4502188672263L273.81983026352793 355.56623680441857L275.325249667717 354.03070901214573L331.05587601079543 354.03070901214573Q357.70179946494153 354.03070901214573 369.4139624295323 363.2438757657827Q381.1261253941231 372.45704251941964 381.1261253941231 389.7994740556775L381.1261253941231 389.7994740556775Q381.1261253941231 409.7613353552242 367.2461584875001 423.61119387376345L367.2461584875001 423.61119387376345Q360.11047051164405 430.98774895428977 349.2714508014829 433.9082625984165Q338.4324310913218 436.858884630627 327.8041700977471 437.7019194969729L327.8041700977471 437.7019194969729Q324.76322290128525 437.94278660164315 319.88566403171274 438.0331117658945Q315.0081051621402 438.1535453182296 311.21444826358385 438.9062550203241Q307.42079136502747 439.65896472241866 307.42079136502747 441.82676866445087L307.42079136502747 441.82676866445087Q307.42079136502747 444.44619842773983 307.751983633949 453.3281729124552Q308.0831759028706 462.21014739717054 308.50469333604354 473.80187680942623Q308.9262107692165 485.39360622168186 308.9262107692165 496.4734930365132ZM322.8061776758395 362.4911660636882L322.8061776758395 362.4911660636882L310.6724972780758 362.4911660636882Q309.5885953070597 362.4911660636882 309.16707787388674 363.2438757657827Q308.71545205263004 363.9965854678772 308.71545205263004 364.8697287223069L308.71545205263004 364.8697287223069Q308.0831759028706 379.1712130621028 307.751983633949 396.2125607175228Q307.42079136502747 413.223799984859 307.42079136502747 427.3145256080685L307.42079136502747 427.3145256080685Q307.42079136502747 428.81994501225756 308.29393461945705 429.3618959977656Q309.16707787388674 429.90384698327364 309.7993540236461 429.90384698327364L309.7993540236461 429.90384698327364Q332.35053669839806 429.90384698327364 346.3208287692724 419.7272118109557Q360.3212292282305 409.52046825055396 360.3212292282305 391.54576056453675L360.3212292282305 391.54576056453675Q360.3212292282305 380.2551150331189 355.1124780897364 373.9925703116925Q349.9037269512423 367.69991720218223 341.3529447354485 365.08048743889333Q332.772054131571 362.4911660636882 322.8061776758395 362.4911660636882ZM449.8334670013112 500.8091009205777L399.7632176179835 500.8091009205777L399.7632176179835 498.6412969785455Q403.01492353103185 496.232625931843 403.67730806887505 493.22178712346494Q404.3095842186344 490.18083992700303 404.5504513233047 484.0989455340793L404.5504513233047 484.0989455340793L404.5504513233047 377.00340912007056Q404.5504513233047 374.4140877448654 404.4300177709695 371.82476636966027Q404.3095842186344 369.2053366063713 404.098825502048 366.82677394775266L404.098825502048 366.82677394775266Q403.8880667854615 363.9965854678772 401.0578783055861 362.4911660636882Q398.25779821379444 360.98574665949917 394.46414131523807 360.1126034050695Q390.6704844166817 359.23946015063984 387.8402959368063 358.3663168962102L387.8402959368063 358.3663168962102L387.8402959368063 354.2414677287322L389.37582372907906 352.5252896079567L457.2100220818375 352.5252896079567Q482.35052613179454 352.5252896079567 498.0671047115282 357.2824149251941Q513.7836832912619 362.06964863051525 522.153815178553 370.74086439864413Q530.4938386777603 379.412080166773 533.6251110384735 391.42532701220165Q536.7864917872705 403.468682245714 536.7864917872705 417.7701665855099L536.7864917872705 417.7701665855099Q536.7864917872705 438.3643040348161 532.3304503508709 453.20773936012006Q527.8744089144714 468.0511746854241 515.3192110835348 481.5096241588741L515.3192110835348 481.5096241588741Q508.15341471959476 489.3076966725734 496.9832027405121 493.5228710043027Q485.84309914951314 497.7681537241158 473.4685516470792 499.27357312830486Q461.12411253272904 500.8091009205777 449.8334670013112 500.8091009205777L449.8334670013112 500.8091009205777ZM422.73591772590834 376.5818916868977L422.73591772590834 376.5818916868977L422.73591772590834 464.3779513392028Q422.9767848305786 468.7135592232672 423.18754354716503 474.0126355260127Q423.39830226375153 479.34182021684194 424.27144551818117 483.67742810090635Q425.1445887726108 488.01303598497077 426.6500081767999 489.72921410574634L426.6500081767999 489.72921410574634Q428.81781211883214 491.89701804777854 434.1168884215775 492.22821031670014Q439.44607311240674 492.5594025856217 443.7816809964712 492.5594025856217L443.7816809964712 492.5594025856217Q465.67047913337996 492.5594025856217 479.8816383089245 486.38718302844666Q494.0626890963853 480.2149634712715 502.1016287147549 469.6770276419482Q510.1104599450406 459.1692002007087 513.2417323057539 446.16237654851534Q516.4031130545509 433.155552896322 516.4031130545509 419.51645309436924L516.4031130545509 419.51645309436924Q516.4031130545509 412.7721741636023 514.988018814613 404.3418255001436Q513.5729245746754 395.8813684486012 510.1104599450406 387.5413449493939Q506.64799531540575 379.1712130621028 500.566100922482 373.11942705726284L500.566100922482 373.11942705726284Q492.76802840878275 365.5321132601501 477.0514498290491 363.45463448236916Q461.3348712493155 361.40726409267205 440.07834926216617 361.40726409267205L440.07834926216617 361.40726409267205Q433.15342000289655 361.40726409267205 430.02214764218337 361.61802280925855Q426.8607668933863 361.828781525845 425.7768649223702 362.28040734710174L425.7768649223702 362.28040734710174Q424.6929629513541 362.7019247802746 424.0606868015947 363.0331170491962Q423.39830226375153 363.3643093181178 423.06710999482993 366.0740642456581Q422.73591772590834 368.78381917319837 422.73591772590834 376.5818916868977Z " fill="white" transform="matrix(0.5238093502538176,0,0,0.5238093502538175,0,76.0582352999346)"/><path d="M681.6197463863223 461.0868219438013L681.6197463863223 461.0868219438013L668.1454775097717 465.6233848318861L666.9944093142875 464.49488660101923Q667.3329587835476 447.43199335031204 667.7392181466597 430.27882024113546Q668.1454775097717 413.1482170965762 668.1454775097717 395.9047641289303L668.1454775097717 395.9047641289303Q668.1454775097717 388.77265530985164 667.897207898981 381.5276966676863Q667.6489382881904 374.30530799013826 667.3329587835476 367.15062920644226L667.3329587835476 367.15062920644226Q666.9944093142875 362.27551684909736 663.5186347632176 360.650479396649Q660.0202902475302 359.02544194420074 655.3031676425068 358.370912970298L655.3031676425068 358.370912970298L655.3031676425068 355.4593875346614L656.4316658733736 354.3083193391772L698.2086703800654 354.3083193391772Q718.1830890664091 354.3083193391772 726.9628053025534 361.2147285120825Q735.7425215386978 368.1211376849878 735.7425215386978 381.1214373045742L735.7425215386978 381.1214373045742Q735.7425215386978 396.085323845869 725.3377678501053 406.4675075698443L725.3377678501053 406.4675075698443Q719.9886862357962 411.99714890109203 711.8634989735547 414.18643546897374Q703.7383117113131 416.39829200147284 695.771114201393 417.0302510107583L695.771114201393 417.0302510107583Q693.4915477750418 417.210810727697 689.8352135070332 417.27852062154903Q686.1788792390245 417.36880048001836 683.3350636972399 417.9330495954518Q680.4912481554554 418.4972987108853 680.4912481554554 420.12233616333356L680.4912481554554 420.12233616333356Q680.4912481554554 422.08592308504194 680.7395177662462 428.7440626471565Q680.9877873770369 435.4022022092711 681.3037668816795 444.09163858694603Q681.6197463863223 452.78107496462104 681.6197463863223 461.0868219438013ZM692.024500074915 360.650479396649L692.024500074915 360.650479396649L682.9288043341279 360.650479396649Q682.1162856079037 360.650479396649 681.800306103261 361.2147285120825Q681.461756634001 361.7789776275159 681.461756634001 362.43350660141874L681.461756634001 362.43350660141874Q680.9877873770369 373.1542397946541 680.7395177662462 385.9288397680671Q680.4912481554554 398.68086977686283 680.4912481554554 409.24361321777684L680.4912481554554 409.24361321777684Q680.4912481554554 410.37211144864375 681.1457771293582 410.7783708117558Q681.800306103261 411.1846301748679 682.274275360225 411.1846301748679L682.274275360225 411.1846301748679Q699.179178858611 411.1846301748679 709.6516424410555 403.5559821342078Q720.1466759881175 395.9047641289303 720.1466759881175 382.4304952523798L720.1466759881175 382.4304952523798Q720.1466759881175 373.9667585208782 716.2420721093182 369.272205880472Q712.3374682305188 364.55508327544845 705.9275982791949 362.59149635374007Q699.4951583632536 360.650479396649 692.024500074915 360.650479396649ZM801.8725178674969 394.6182761457421L801.8725178674969 394.6182761457421L810.4942443513198 389.58517403607584L811.306763077544 390.3976927623Q810.3362545989985 408.0925450222926 810.3362545989985 425.8099672469026L810.3362545989985 425.8099672469026Q810.3362545989985 429.55658137338065 810.0879849882077 434.7476732353683Q809.8397153774171 439.9613350619733 810.178264846677 444.8364474193182Q810.4942443513198 449.7115597766631 811.9612920514468 452.96163468155976Q813.4283397515737 456.2117095864563 816.6784146564703 456.2117095864563L816.6784146564703 456.2117095864563Q818.46144186124 456.2117095864563 821.5535270138153 455.21863114329346Q824.6230422017732 454.24812266474794 827.2411580973843 453.27761418620247L827.2411580973843 453.27761418620247L828.3696563282512 457.18221806500185Q825.1195814233546 459.1232350220929 821.3729672968765 461.3125215899746Q817.6489231350158 463.5243781224737 814.0602987608592 465.05913571645266Q810.4942443513198 466.5938933104316 807.898698420326 466.5938933104316L807.898698420326 466.5938933104316Q803.3395655676238 466.5938933104316 801.3985486105328 463.8403576271164Q799.4349616888244 461.0868219438013 798.6224429626003 457.0242283126805L798.6224429626003 457.0242283126805L796.1848867839278 456.3696993387777Q790.181276195716 460.2743032175771 783.5231366336014 463.4340982640044Q776.8649970714869 466.5938933104316 769.7103182877909 466.5938933104316L769.7103182877909 466.5938933104316Q762.8716190087375 466.5938933104316 758.3350561206527 463.6823678747951Q753.7759232679506 460.7482724745412 751.0223875846353 456.03114986951766Q748.2462819367028 451.3365972291114 747.0275038473666 445.7166760393944Q745.8087257580304 440.11932481429466 745.8087257580304 434.58968348304694L745.8087257580304 434.58968348304694Q745.8087257580304 425.967956999224 748.0205822905294 417.84276973698246Q750.2098688584111 409.71758247474094 754.8367116049654 403.1497227710957Q759.4635543515195 396.5592931028331 766.776222887537 392.7449690825031Q774.0888914235544 388.930645062173 784.493645112147 388.930645062173L784.493645112147 388.930645062173Q788.3982489909464 388.930645062173 793.1830814898219 390.3976927623Q797.9904839533148 391.8421704978096 801.8725178674969 394.6182761457421ZM798.3064634579575 448.5604915811789L798.3064634579575 448.5604915811789L798.3064634579575 411.1846301748679Q798.3064634579575 407.93455526997127 797.9904839533148 405.0230298343347Q797.6519344840548 402.08893443408084 795.7109175269637 399.9673577600511L795.7109175269637 399.9673577600511Q793.589340852934 397.71036129831737 790.6778154172974 396.1530337397211Q787.7437200170435 394.6182761457421 784.6516348644683 394.6182761457421L784.6516348644683 394.6182761457421Q775.7139288760027 394.6182761457421 769.2137790662094 400.77987648627527L769.2137790662094 400.77987648627527Q766.4602433828942 403.3979923818864 763.6164278411097 410.37211144864375Q760.7726122993251 417.36880048001836 760.434062830065 429.71457112570204L760.434062830065 429.71457112570204Q760.2760730777437 434.7476732353683 761.2465815562892 439.87105520350394Q762.2396599994521 444.99443717163956 764.9931956827674 449.21502055508165L764.9931956827674 449.21502055508165Q767.5887416137612 453.27761418620247 772.057594607994 454.58667213400804Q776.5264476022268 455.8731601171963 781.085580454929 455.8731601171963L781.085580454929 455.8731601171963Q785.8027030599525 455.8731601171963 790.2715560541855 453.5935936908452Q794.7404090484182 451.3365972291114 798.3064634579575 448.5604915811789ZM861.8409138557628 363.0880355753215L861.8409138557628 363.0880355753215Q861.6829241034415 367.15062920644226 858.8391085616569 369.67846524358407Q855.9952930198724 372.18373131610855 852.090689141073 372.18373131610855L852.090689141073 372.18373131610855Q848.1860852622737 372.18373131610855 845.4325495789584 369.43019563279336Q842.6790138956432 366.65408998486083 842.6790138956432 362.7720560706788L842.6790138956432 362.7720560706788Q842.6790138956432 358.5289027226193 846.0870785528612 356.0913465439468Q849.4951432100792 353.6537903652744 853.0611976196185 353.6537903652744L853.0611976196185 353.6537903652744Q857.3043509676779 353.6537903652744 859.5613474294117 356.4976059070589Q861.8409138557628 359.3414214488435 861.8409138557628 363.0880355753215ZM859.5613474294117 400.96043620321393L859.5613474294117 400.96043620321393L858.2748594462236 435.08622270462837Q858.2748594462236 444.02392869309404 859.7419071463504 449.0570308027603Q861.18638488186 454.0901329124266 865.4295382299194 454.0901329124266L865.4295382299194 454.0901329124266Q870.1240908703257 454.0901329124266 873.6224353860131 451.90084634454485Q877.1207799017003 449.7115597766631 880.370854806597 446.7774643764092L880.370854806597 446.7774643764092L882.4924314806267 448.40250182885757L882.4924314806267 450.18552903362723Q879.7163258326942 453.77415340778384 876.0599915646854 457.43048767579256Q872.4036572966768 461.0868219438013 868.273353771704 463.5243781224737Q864.1204802821139 465.9619343011462 859.5613474294117 465.9619343011462L859.5613474294117 465.9619343011462Q856.1532827721937 465.9619343011462 853.1514774780878 464.74315621180995Q850.1496721839819 463.5243781224737 848.3666449792123 459.6197742436743Q846.5610478098253 455.7151703648749 846.5610478098253 447.74797285495475L846.5610478098253 447.74797285495475L847.5541262529881 411.83915914877065Q847.5541262529881 405.4969990912988 846.3353481636519 401.77295492943813Q845.1165700743156 398.0263408029601 841.8664951694191 398.0263408029601L841.8664951694191 398.0263408029601Q839.2483792738079 398.0263408029601 835.5243351119472 399.74165811387775Q831.7777209854692 401.434405460178 828.8661955498327 403.2174326649477L828.8661955498327 403.2174326649477L826.7446188758029 400.3059072293112Q832.2742602070506 395.9047641289303 838.5261404060531 392.02273021474826Q844.7780206050556 388.1181263359489 849.4951432100792 388.1181263359489L849.4951432100792 388.1181263359489Q855.0247845413269 388.1181263359489 857.3043509676779 391.8421704978096Q859.5613474294117 395.5887846242876 859.5613474294117 400.96043620321393ZM952.5270316882251 464.33689684869785L914.9931805295928 464.33689684869785L914.9931805295928 462.71185939624957Q917.4307367082653 460.90626222686257 917.9047059652293 458.6492657651288Q918.4012451868108 456.3696993387777 918.5592349391321 451.8105664860755L918.5592349391321 451.8105664860755L918.5592349391321 371.5292023422058Q918.5592349391321 369.58818538511474 918.4689550806628 367.6471684280237Q918.4012451868108 365.6835815063153 918.2432554344895 363.90055430154564L918.2432554344895 363.90055430154564Q918.0626957175507 361.7789776275159 915.9636890081383 360.650479396649Q913.8421123341086 359.52198116578217 910.998296792324 358.8674521918794Q908.1544812505396 358.2129232179766 906.0554745411271 357.5583942440738L906.0554745411271 357.5583942440738L906.0554745411271 354.46630909149854L907.183972771994 353.1798211083103L958.0566730194729 353.1798211083103Q976.9025934749498 353.1798211083103 988.6841150051999 356.74587551784964Q1000.4656365354502 360.33449989200636 1006.7175167344526 366.83464970179955Q1012.9693969334552 373.33479951159273 1015.3392432182757 382.34021539391046Q1017.6865195384788 391.3682012408455 1017.6865195384788 402.08893443408084L1017.6865195384788 402.08893443408084Q1017.6865195384788 417.52679023233975 1014.3461647751128 428.6537827886872Q1011.0283799763642 439.7807753450346 1001.5941347663171 449.86954952898446L1001.5941347663171 449.86954952898446Q996.245053152008 455.7151703648749 987.8715962789757 458.8749654113022Q979.4981394059436 462.05733042234675 970.2444539128352 463.18582865321366Q960.9681984551095 464.33689684869785 952.5270316882251 464.33689684869785L952.5270316882251 464.33689684869785ZM932.2140635326214 371.213222837563L932.2140635326214 371.213222837563L932.2140635326214 437.02723966171936Q932.3720532849428 440.27731456661604 932.5300430372641 444.2496283392674Q932.6880327895855 448.2445120765362 933.3425617634882 451.4945869814328Q933.997090737391 454.74466188632937 935.125588968258 456.03114986951766L935.125588968258 456.03114986951766Q936.7506264207062 457.65618732196594 940.745510157975 457.90445693275666Q944.7178239306264 458.1527265435474 947.967898835523 458.1527265435474L947.967898835523 458.1527265435474Q964.3762631123274 458.1527265435474 975.0292864117107 453.5258837969932Q985.682309711094 448.89904105043894 991.6859202993058 440.9995534343708Q997.6895308875177 433.12263578292 1000.059377172338 423.3724110682302Q1002.4066534925412 413.6221863535403 1002.4066534925412 403.3979923818864L1002.4066534925412 403.3979923818864Q1002.4066534925412 398.3423203076028 1001.3458651555263 392.02273021474826Q1000.3076467831289 385.6805701572764 997.6895308875177 379.4286899582739Q995.0939849565239 373.1542397946541 990.557422068439 368.6176769065692L990.557422068439 368.6176769065692Q984.6892312679312 362.93004582300017 972.907709737681 361.3727182644039Q961.1261882074308 359.83796067042493 945.2143631522077 359.83796067042493L945.2143631522077 359.83796067042493Q940.0007013256028 359.83796067042493 937.6534250053998 359.99595042274626Q935.3061486851966 360.1539401750676 934.4936299589725 360.4924896443277L934.4936299589725 360.4924896443277Q933.6811112327483 360.8084691489704 933.1845720111669 361.0567387597611Q932.6880327895855 361.30500837055183 932.4623331434121 363.3363051861122Q932.2140635326214 365.3676020016726 932.2140635326214 371.213222837563ZM1092.122262846458 412.8096676273162L1092.122262846458 412.8096676273162L1046.2826647086454 432.6486665259559Q1046.7792039302267 437.6817686356222 1048.9684904981086 443.0308502499312Q1051.1577770659906 448.40250182885757 1055.6266300602233 451.9685562383969Q1060.095483054456 455.55718061255357 1067.250161838152 455.55718061255357L1067.250161838152 455.55718061255357Q1073.9083014002667 455.55718061255357 1080.340741316208 452.14911595533556Q1086.750611267532 448.7184813335003 1092.2802525987795 444.49789795005813L1092.2802525987795 444.49789795005813L1094.063279803549 444.8364474193182L1096.1848564775787 447.74797285495475Q1091.1291844032953 452.46509545997833 1085.2158536735528 456.77595870188975Q1079.2799529791928 461.0868219438013 1072.6895233109303 463.8403576271164Q1066.1216636072854 466.5938933104316 1059.1249745759105 466.5938933104316L1059.1249745759105 466.5938933104316Q1050.999787313669 466.5938933104316 1045.7184155932118 463.18582865321366Q1040.437043872755 459.77776399599566 1037.502948472501 454.18041277089594Q1034.5914230368649 448.5604915811789 1033.3726449475284 441.6540824082736Q1032.153866858192 434.7476732353683 1032.153866858192 427.93154392093237L1032.153866858192 427.93154392093237Q1032.153866858192 420.7768651372363 1033.936894062962 413.9607358228004Q1035.7199212677315 407.12203654374713 1040.437043872755 401.5923952124994L1040.437043872755 401.5923952124994Q1046.440654460967 394.6182761457421 1054.8141113339989 390.803952125412Q1063.1875682070313 386.96705814046464 1072.44125370014 386.96705814046464L1072.44125370014 386.96705814046464Q1083.0039971410538 386.96705814046464 1089.2784473046736 393.4672079502579Q1095.5303275036763 399.9673577600511 1095.5303275036763 409.4016029700982L1095.5303275036763 409.4016029700982Q1095.5303275036763 410.8686506702252 1094.4695391666614 411.52317964412794Q1093.4087508296461 412.15513865341336 1092.122262846458 412.8096676273162ZM1053.1213639876987 400.3059072293112L1053.1213639876987 400.3059072293112Q1048.404241382675 405.33900933897746 1047.0274735410176 410.8686506702252Q1045.6281357347425 416.39829200147284 1045.6281357347425 422.40190258968465L1045.6281357347425 422.40190258968465Q1045.6281357347425 423.05643156358747 1045.7184155932118 423.7786704313422Q1045.8086954516816 424.52347926371436 1045.9666852040027 425.3359979899385L1045.9666852040027 425.3359979899385L1046.6212141779056 425.967956999224L1079.4379427315143 412.96765737963756Q1080.2504614577383 412.6516778749948 1080.9049904316412 411.6811693964493Q1081.559519405544 410.7106609179038 1081.559519405544 408.7470739961954L1081.559519405544 408.7470739961954Q1081.559519405544 405.33900933897746 1079.753922236157 401.77295492943813Q1077.9708950313875 398.18433055528146 1074.653110232639 395.8370542350783Q1071.3127554692728 393.4672079502579 1066.7536226165707 393.4672079502579L1066.7536226165707 393.4672079502579Q1062.69102898545 393.4672079502579 1059.2152544343799 395.2728051196449Q1055.7169099186926 397.05583232441455 1053.1213639876987 400.3059072293112ZM1155.0021842703604 402.40491393872355L1155.0021842703604 402.40491393872355L1146.064478281895 408.4310944915527L1144.1234613248039 407.28002629606846Q1143.7849118555437 401.93094468175946 1141.4376355353406 398.2746104137508Q1139.06778925052 394.6182761457421 1133.56071788389 394.6182761457421L1133.56071788389 394.6182761457421Q1127.8730868003208 394.6182761457421 1124.0361928153734 398.3423203076028Q1120.2218687950435 402.08893443408084 1120.2218687950435 407.7765655176499L1120.2218687950435 407.7765655176499Q1120.2218687950435 412.6516778749948 1124.6907217892763 416.1500223906821Q1129.159574783509 419.64836690636946 1138.0972807719745 423.3724110682302L1138.0972807719745 423.3724110682302Q1147.5315259820218 427.43500469935094 1152.158368728576 431.99413755205313Q1156.7852114751304 436.53070044013793 1156.7852114751304 442.21833152370704L1156.7852114751304 442.21833152370704Q1156.7852114751304 450.5240785028873 1152.158368728576 456.121429727987Q1147.5315259820218 461.7187809530867 1140.467127056795 464.56259649487123Q1133.3801581669513 467.40641203665575 1126.2480493478724 467.40641203665575L1126.2480493478724 467.40641203665575Q1118.9353808118549 467.40641203665575 1112.6609306482355 464.49488660101923Q1106.4090504492328 461.5607912007653 1102.346456818112 453.9321431601052L1102.346456818112 453.9321431601052L1110.313654328032 442.39889124064575L1112.5932207543833 442.5568809929671Q1113.0671900113475 450.02753928130585 1118.2808518379525 455.62489050640556Q1123.4719436999399 461.2448116961226 1131.1231617052176 461.2448116961226L1131.1231617052176 461.2448116961226Q1136.314253567205 461.2448116961226 1140.6251168091167 457.58847742811395Q1144.9359800510279 453.9321431601052 1144.9359800510279 448.89904105043894L1144.9359800510279 448.89904105043894Q1144.9359800510279 444.6558877023795 1142.4984238723555 441.74436226674294Q1140.0608676936831 438.8102668664891 1136.4045334256743 436.71126015707665Q1132.7481991576656 434.58968348304694 1128.8435952788664 432.9646460305986L1128.8435952788664 432.9646460305986Q1123.8104931692 430.8430693565689 1119.0933705641764 428.0895336732537Q1114.3762479591528 425.3359979899385 1111.4421525588991 421.4313941111391Q1108.5306271232625 417.52679023233975 1108.5306271232625 412.15513865341336L1108.5306271232625 412.15513865341336Q1108.5306271232625 404.84247011739603 1112.7512105067044 399.65137825540836Q1116.9717938901467 394.46028639342074 1123.4719436999399 391.6841807454882Q1129.9720935097334 388.930645062173 1136.6302330718477 388.930645062173L1136.6302330718477 388.930645062173Q1140.873386419907 388.930645062173 1145.00368994488 390.21713304536127Q1149.1565634344702 391.52619099316684 1152.0003789762545 394.46028639342074Q1154.8441945180393 397.37181182905726 1155.0021842703604 402.40491393872355ZM1194.4996223507014 363.0880355753215L1194.4996223507014 363.0880355753215Q1194.3190626337628 367.15062920644226 1191.475247091978 369.67846524358407Q1188.6314315501936 372.18373131610855 1184.7493976360115 372.18373131610855L1184.7493976360115 372.18373131610855Q1180.8447937572123 372.18373131610855 1178.0686881092797 369.43019563279336Q1175.3151524259642 366.65408998486083 1175.3151524259642 362.7720560706788L1175.3151524259642 362.7720560706788Q1175.3151524259642 358.5289027226193 1178.7232170831821 356.0913465439468Q1182.1312817404005 353.6537903652744 1185.719906114557 353.6537903652744L1185.719906114557 353.6537903652744Q1189.940489497999 353.6537903652744 1192.2200559243502 356.4976059070589Q1194.4996223507014 359.3414214488435 1194.4996223507014 363.0880355753215ZM1192.2200559243502 400.96043620321393L1192.2200559243502 400.96043620321393L1190.9109979765444 435.08622270462837Q1190.9109979765444 444.02392869309404 1192.3780456766717 449.0570308027603Q1193.8450933767986 454.0901329124266 1198.0656767602409 454.0901329124266L1198.0656767602409 454.0901329124266Q1202.782799365264 454.0901329124266 1206.2811438809517 451.90084634454485Q1209.7569184320214 449.7115597766631 1213.0069933369182 446.7774643764092L1213.0069933369182 446.7774643764092L1215.128570010948 448.40250182885757L1215.128570010948 450.18552903362723Q1212.3750343276329 453.77415340778384 1208.718700059624 457.43048767579256Q1205.0623657916153 461.0868219438013 1200.9094923020252 463.5243781224737Q1196.7566188124351 465.9619343011462 1192.2200559243502 465.9619343011462L1192.2200559243502 465.9619343011462Q1188.8119912671323 465.9619343011462 1185.7876160084088 464.74315621180995Q1182.7858107143034 463.5243781224737 1181.0027835095334 459.6197742436743Q1179.219756304764 455.7151703648749 1179.219756304764 447.74797285495475L1179.219756304764 447.74797285495475L1180.1902647833094 411.83915914877065Q1180.1902647833094 405.4969990912988 1178.971486693973 401.77295492943813Q1177.7527086046366 398.0263408029601 1174.5026336997403 398.0263408029601L1174.5026336997403 398.0263408029601Q1171.9070877687464 398.0263408029601 1168.1604736422682 399.74165811387775Q1164.4364294804077 401.434405460178 1161.502334080154 403.2174326649477L1161.502334080154 403.2174326649477L1159.3807574061238 400.3059072293112Q1164.910398737372 395.9047641289303 1171.1622789363742 392.02273021474826Q1177.436729099994 388.1181263359489 1182.1312817404005 388.1181263359489L1182.1312817404005 388.1181263359489Q1187.660923071648 388.1181263359489 1189.940489497999 391.8421704978096Q1192.2200559243502 395.5887846242876 1192.2200559243502 400.96043620321393ZM1272.8173995728625 457.34020781732323L1271.3503518727357 456.2117095864563Q1265.0081918152637 459.77776399599566 1258.1017826423586 463.11811875936166Q1251.1953734694534 466.4359035581102 1243.5667254287932 466.4359035581102L1243.5667254287932 466.4359035581102Q1236.9085858666785 466.4359035581102 1231.536934287752 462.46358978545885Q1226.187852673443 458.4687060481901 1223.0957675208679 451.3365972291114Q1220.0036823682926 444.1819184454154 1220.0036823682926 434.7476732353683L1220.0036823682926 434.7476732353683Q1220.0036823682926 420.2803259156549 1224.9690745841071 410.056131944001Q1229.911896835304 399.80936800772974 1238.3756335668058 394.46028639342074Q1246.81680033369 389.0886348144944 1257.2215540222824 389.0886348144944L1257.2215540222824 389.0886348144944Q1262.2546561319486 389.0886348144944 1267.2200483477627 390.3074129038306Q1272.1628705989597 391.52619099316684 1276.2254642300804 394.6182761457421L1276.2254642300804 394.6182761457421L1284.5086412446435 389.90115354071855L1286.7882076709948 390.8716620192641Q1286.4722281663521 396.40130335051174 1286.2239585555612 401.8406648232901Q1285.9756889447704 407.28002629606846 1285.72741933398 413.9607358228004Q1285.5017196878066 420.618875384915 1285.4114398293368 429.6242912672327Q1285.321159970868 438.6522771141677 1285.321159970868 451.3365972291114L1285.321159970868 451.3365972291114Q1285.321159970868 456.03114986951766 1284.7569108554344 463.7500777686471Q1284.1926617400009 471.4690056677765 1281.7551055613285 478.6236844514725L1281.7551055613285 478.6236844514725Q1279.8140886042374 483.9953360303989 1276.0674744777593 487.96764980305034Q1272.3208603512812 491.96253354031904 1269.8833041726089 493.7455607450887L1269.8833041726089 493.7455607450887Q1263.721703832076 498.46268335011223 1257.379543774604 500.4939801656726Q1251.037383717132 502.52527698123305 1243.5667254287932 502.52527698123305L1243.5667254287932 502.52527698123305Q1238.1950738498667 502.52527698123305 1232.6880024832367 500.71967981184605Q1227.1583611519886 498.9366526070763 1221.1321805991597 493.40701127582867L1221.1321805991597 493.40701127582867L1229.0993781090797 483.3408070564961L1231.378944535431 483.3408070564961Q1232.8459922355578 486.27490245674994 1235.5995279188728 489.1187179985345Q1238.3756335668058 491.96253354031904 1241.5354286132329 493.9035504974101Q1244.6952236596603 495.8445674545011 1247.629319059914 495.8445674545011L1247.629319059914 495.8445674545011Q1256.2510455437368 495.8445674545011 1261.690407016515 490.6534755925135Q1267.1297684892938 485.46238373052586 1269.8155942787566 476.6826674943815Q1272.5014200682199 467.9029512582372 1272.8173995728625 457.34020781732323L1272.8173995728625 457.34020781732323ZM1272.8173995728625 448.5604915811789L1272.8173995728625 448.5604915811789L1272.8173995728625 405.6549888436202Q1272.5014200682199 399.9673577600511 1268.0325670739871 397.30410193520527Q1263.5637140797544 394.6182761457421 1258.3500522531494 394.6182761457421L1258.3500522531494 394.6182761457421Q1251.1953734694534 394.6182761457421 1246.5008208290474 398.2746104137508Q1241.7836982240237 401.93094468175946 1239.0075925760907 407.68628565918056Q1236.2540568927757 413.464196601219 1235.125558661909 419.80635665869085Q1233.9744904664249 426.1485167161627 1233.9744904664249 431.6555880827931L1233.9744904664249 431.6555880827931Q1233.9744904664249 438.9682566188104 1236.9085858666785 444.49789795005813Q1239.8201113023151 450.02753928130585 1244.1309745442268 453.1196244338811Q1248.441837786138 456.2117095864563 1252.5044314172587 456.2117095864563L1252.5044314172587 456.2117095864563Q1256.2510455437368 456.2117095864563 1260.2233593163883 454.90265163865075Q1264.1956730890397 453.5935936908452 1267.6263077108752 451.8105664860755Q1271.034372368093 450.02753928130585 1272.8173995728625 448.5604915811789ZM1328.2266627084264 461.7187809530867L1328.2266627084264 461.7187809530867L1316.8514005412885 465.6233848318861L1314.4138443626157 464.49488660101923Q1314.5718341149372 461.402801448444 1314.8201037257277 455.3991908602322Q1315.0683733365186 449.3730103074031 1315.3166429473094 442.15062162985504Q1315.5649125580999 434.90566298768965 1315.7229023104214 427.99925381478437Q1315.880892062743 421.0928446418791 1315.880892062743 416.2177322845341L1315.880892062743 416.2177322845341Q1315.880892062743 408.0925450222926 1314.9103835841975 402.81117330183565Q1313.939875105652 397.52980158137865 1309.8772814745312 397.52980158137865L1309.8772814745312 397.52980158137865Q1307.2591655789197 397.52980158137865 1304.2573602848138 399.2451188922963Q1301.2555549907079 400.96043620321393 1297.6895005811684 403.2174326649477L1297.6895005811684 403.2174326649477L1294.9133949332363 399.65137825540836Q1298.3214595904542 397.21382207673594 1302.2260634692534 394.52799628727274Q1306.130667348053 391.8421704978096 1310.0352712268523 389.9914333991879Q1313.939875105652 388.1181263359489 1316.8514005412885 388.1181263359489L1316.8514005412885 388.1181263359489Q1323.035570846439 388.1181263359489 1325.4731270251114 391.3682012408455Q1327.9106832037837 394.6182761457421 1328.5652121776866 399.15483903382693L1328.5652121776866 399.15483903382693L1329.8517001608748 400.1479174769898Q1336.6903994399281 395.9047641289303 1344.7253068437003 392.18071996706965Q1352.7602142474725 388.4341058405916 1360.5694220050714 388.4341058405916L1360.5694220050714 388.4341058405916Q1364.1354764146104 388.4341058405916 1367.4758311779765 389.4046143191371Q1370.8161859413426 390.3976927623 1373.0731824030763 393.1512284456152L1373.0731824030763 393.1512284456152Q1374.6982198555247 395.09224540270617 1375.3527488294271 400.21562737084184Q1376.00727780333 405.33900933897746 1376.1652675556516 411.59088953797993Q1376.3232573079727 417.84276973698246 1376.3232573079727 423.05643156358747L1376.3232573079727 423.05643156358747Q1376.3232573079727 435.24421245694975 1376.413537166442 442.21833152370704Q1376.5038170249113 449.21502055508165 1378.0385746188904 452.05883609686623Q1379.5733322128694 454.90265163865075 1384.1324650655715 454.90265163865075L1384.1324650655715 454.90265163865075Q1386.886000748887 454.90265163865075 1390.4746251230436 452.78107496462104Q1394.0406795325825 450.6820682552086 1397.1327646851582 448.40250182885757L1397.1327646851582 448.40250182885757L1399.2543413591875 448.40250182885757L1400.6988190946977 451.8105664860755Q1395.1917477280672 457.34020781732323 1388.104778838223 461.80906081155604Q1381.0403799129963 466.2779138057889 1375.194759077106 466.2779138057889L1375.194759077106 466.2779138057889Q1368.5366195149913 466.2779138057889 1366.0087834778496 462.05733042234675Q1363.503517405325 457.8367470389046 1363.503517405325 451.9685562383969L1363.503517405325 451.9685562383969L1364.316036131549 424.1849297944543Q1364.316036131549 411.99714890109203 1361.291660872826 405.0230298343347Q1358.28985557872 398.0263408029601 1349.6906990595144 398.0263408029601L1349.6906990595144 398.0263408029601Q1344.1610577282668 398.0263408029601 1338.6314163970192 401.1861358493873Q1333.101775065771 404.36850086043194 1328.7232019300077 407.93455526997127L1328.7232019300077 407.93455526997127Q1328.384652460748 416.71427150611555 1328.0686729561053 426.7804757254481Q1327.7526934514626 436.86924990939804 1327.7526934514626 445.8069558978637L1327.7526934514626 445.8069558978637Q1327.7526934514626 449.21502055508165 1327.9106832037837 453.02934457541176Q1328.0686729561053 456.8436685957418 1328.2266627084264 461.7187809530867ZM1501.1351616418497 455.21863114329346L1502.760199094298 456.8436685957418L1500.4806326679468 465.46539507956476Q1495.9440697798618 464.9688558579833 1488.1348620222634 464.74315621180995Q1480.325654264664 464.49488660101923 1470.823699160765 464.40460674254984Q1461.321744056866 464.33689684869785 1451.571519342176 464.33689684869785Q1441.8212946274866 464.33689684869785 1433.380127860602 464.33689684869785L1433.380127860602 464.33689684869785L1433.380127860602 462.05733042234675Q1435.321144817693 459.2812247744142 1436.1336635439175 453.5258837969932Q1436.9461822701414 447.74797285495475 1436.9461822701414 441.4058127974829L1436.9461822701414 441.4058127974829L1436.9461822701414 363.7425645492243Q1436.9461822701414 361.95953734445465 1436.1336635439175 360.33449989200636Q1435.321144817693 358.709462439558 1433.5381176129235 358.370912970298L1433.5381176129235 358.370912970298Q1431.9130801604751 358.0549334656552 1429.7237935925937 357.5583942440738Q1427.5119370600946 357.0844249871097 1425.8868996076462 356.74587551784964Q1424.2618621551978 356.4298960132069 1424.1038724028767 356.4298960132069L1424.1038724028767 356.4298960132069L1424.2618621551978 353.6537903652744L1425.412930350682 352.5252921344075L1463.91728998786 352.5252921344075L1464.8877984664055 353.495800612953L1464.8877984664055 356.903865270171Q1464.8877984664055 356.903865270171 1462.9467815093144 357.31012463328307Q1461.0057645522234 357.71638399639517 1458.568208373551 358.2129232179766Q1456.1306521948786 358.709462439558 1454.3250550254916 359.1834316965221L1454.3250550254916 359.1834316965221Q1452.8805772899818 359.3414214488435 1452.226048316079 360.650479396649Q1451.571519342176 361.95953734445465 1451.413529589855 363.2460253276429L1451.413529589855 363.2460253276429Q1450.4430211113095 380.96344755225283 1450.4430211113095 400.77987648627527L1450.4430211113095 400.77987648627527Q1450.4430211113095 414.59269483208584 1450.7590006159521 428.4957930363658Q1451.0749801205948 442.39889124064575 1451.571519342176 455.55718061255357L1451.571519342176 455.55718061255357Q1451.7295090944976 456.2117095864563 1452.3840380684005 456.93394845421113Q1453.0385670423034 457.65618732196594 1453.6930960162058 457.65618732196594L1453.6930960162058 457.65618732196594Q1460.0126861090603 457.65618732196594 1467.9798836189807 457.34020781732323Q1475.9470811289007 457.0242283126805 1483.4177394172398 456.5276890910991Q1490.8883977055784 456.03114986951766 1495.8537899213925 455.62489050640556Q1500.819182137207 455.21863114329346 1501.1351616418497 455.21863114329346L1501.1351616418497 455.21863114329346ZM1565.6401205182005 394.6182761457421L1565.6401205182005 394.6182761457421L1574.2618470020234 389.58517403607584L1575.0743657282474 390.3976927623Q1574.1038572497018 408.0925450222926 1574.1038572497018 425.8099672469026L1574.1038572497018 425.8099672469026Q1574.1038572497018 429.55658137338065 1573.855587638911 434.7476732353683Q1573.6073180281205 439.9613350619733 1573.9458674973807 444.8364474193182Q1574.2618470020234 449.7115597766631 1575.7288947021502 452.96163468155976Q1577.195942402277 456.2117095864563 1580.4460173071739 456.2117095864563L1580.4460173071739 456.2117095864563Q1582.2290445119434 456.2117095864563 1585.3211296645186 455.21863114329346Q1588.3906448524767 454.24812266474794 1591.0087607480878 453.27761418620247L1591.0087607480878 453.27761418620247L1592.1372589789548 457.18221806500185Q1588.887184074058 459.1232350220929 1585.14056994758 461.3125215899746Q1581.4165257857194 463.5243781224737 1577.8279014115628 465.05913571645266Q1574.2618470020234 466.5938933104316 1571.6663010710295 466.5938933104316L1571.6663010710295 466.5938933104316Q1567.1071682183274 466.5938933104316 1565.1661512612363 463.8403576271164Q1563.2025643395277 461.0868219438013 1562.3900456133038 457.0242283126805L1562.3900456133038 457.0242283126805L1559.9524894346314 456.3696993387777Q1553.9488788464196 460.2743032175771 1547.290739284305 463.4340982640044Q1540.6325997221902 466.5938933104316 1533.4779209384942 466.5938933104316L1533.4779209384942 466.5938933104316Q1526.6392216594409 466.5938933104316 1522.102658771356 463.6823678747951Q1517.5435259186538 460.7482724745412 1514.7899902353388 456.03114986951766Q1512.0138845874062 451.3365972291114 1510.7951064980698 445.7166760393944Q1509.5763284087338 440.11932481429466 1509.5763284087338 434.58968348304694L1509.5763284087338 434.58968348304694Q1509.5763284087338 425.967956999224 1511.7881849412329 417.84276973698246Q1513.9774715091148 409.71758247474094 1518.6043142556691 403.1497227710957Q1523.231157002223 396.5592931028331 1530.5438255382405 392.7449690825031Q1537.8564940742576 388.930645062173 1548.2612477628504 388.930645062173L1548.2612477628504 388.930645062173Q1552.1658516416496 388.930645062173 1556.9506841405255 390.3976927623Q1561.7580866040184 391.8421704978096 1565.6401205182005 394.6182761457421ZM1562.074066108661 448.5604915811789L1562.074066108661 448.5604915811789L1562.074066108661 411.1846301748679Q1562.074066108661 407.93455526997127 1561.7580866040184 405.0230298343347Q1561.4195371347582 402.08893443408084 1559.4785201776672 399.9673577600511L1559.4785201776672 399.9673577600511Q1557.3569435036375 397.71036129831737 1554.445418068001 396.1530337397211Q1551.5113226677472 394.6182761457421 1548.419237515172 394.6182761457421L1548.419237515172 394.6182761457421Q1539.481531526706 394.6182761457421 1532.981381716913 400.77987648627527L1532.981381716913 400.77987648627527Q1530.2278460335979 403.3979923818864 1527.384030491813 410.37211144864375Q1524.5402149500287 417.36880048001836 1524.2016654807685 429.71457112570204L1524.2016654807685 429.71457112570204Q1524.043675728447 434.7476732353683 1525.0141842069925 439.87105520350394Q1526.0072626501556 444.99443717163956 1528.760798333471 449.21502055508165L1528.760798333471 449.21502055508165Q1531.3563442644645 453.27761418620247 1535.8251972586972 454.58667213400804Q1540.2940502529304 455.8731601171963 1544.8531831056325 455.8731601171963L1544.8531831056325 455.8731601171963Q1549.5703057106562 455.8731601171963 1554.039158704889 453.5935936908452Q1558.5080116991217 451.3365972291114 1562.074066108661 448.5604915811789ZM1589.8576925526036 360.650479396649L1589.8576925526036 357.24241473943107L1590.828201031149 356.4298960132069L1618.295847970449 353.495800612953L1619.2663564489944 354.64686880843726Q1618.295847970449 364.55508327544845 1617.641318996546 374.46329774245964Q1617.0093599872607 384.37151220947084 1617.0093599872607 394.46028639342074L1617.0093599872607 394.46028639342074L1617.0093599872607 399.80936800772974L1618.45383772277 400.6218867339539Q1624.9539875325636 395.746774376609 1632.1086663162596 392.18071996706965Q1639.2633450999556 388.592095592913 1647.5465221145187 388.592095592913L1647.5465221145187 388.592095592913Q1655.197740119796 388.592095592913 1660.2308422294623 392.24842986092165Q1665.2639443391286 395.9047641289303 1667.8594902701225 401.8406648232901Q1670.455036201116 407.7765655176499 1670.455036201116 414.59269483208584L1670.455036201116 414.59269483208584Q1670.455036201116 419.9643464110122 1669.8230771918306 425.3359979899385Q1669.1685482179278 430.68507960424756 1667.3855210131583 435.8987414308525L1667.3855210131583 435.8987414308525Q1664.6094153652257 444.49789795005813 1657.8609959446417 451.4043071229634Q1651.1351464886752 458.3107162958687 1642.2651503940615 462.30560003313747Q1633.4177242640649 466.2779138057889 1624.1414688063396 466.2779138057889L1624.1414688063396 466.2779138057889Q1620.0788751752184 466.2779138057889 1615.6100221809857 464.6528763533406Q1611.141169186753 463.0278389008923 1608.139363892647 458.3107162958687Q1605.137558598541 453.5935936908452 1605.137558598541 444.6558877023795L1605.137558598541 444.6558877023795L1605.137558598541 367.3086189587636Q1605.137558598541 364.39709352312707 1604.2347600138478 363.40401507996427Q1603.3545313937716 362.43350660141874 1600.1044564888748 362.02724723830664Q1596.854381583978 361.62098787519454 1589.8576925526036 360.650479396649L1589.8576925526036 360.650479396649ZM1617.641318996546 408.2731047392313L1617.641318996546 408.2731047392313Q1617.4833292442245 412.3356983703521 1617.235059633434 417.52679023233975Q1617.0093599872607 422.71788209432736 1617.0093599872607 427.43500469935094L1617.0093599872607 427.43500469935094Q1617.0093599872607 436.53070044013793 1618.047578359658 443.61766932998194Q1619.1083666966729 450.6820682552086 1622.5164313538912 454.58667213400804Q1625.9470659757262 458.4687060481901 1633.079174794805 458.4687060481901L1633.079174794805 458.4687060481901Q1641.700901278628 458.4687060481901 1646.9822729990851 453.9321431601052Q1652.2636447195418 449.3730103074031 1654.6109210397453 442.3086113821764Q1656.9807673245655 435.24421245694975 1656.9807673245655 427.773554168611L1656.9807673245655 427.773554168611Q1656.9807673245655 418.8358481801453 1655.4234397659693 413.5544764596883Q1653.8886821719902 408.2731047392313 1652.1056549672207 405.6549888436202L1652.1056549672207 405.6549888436202Q1650.4806175147723 403.2174326649477 1647.5465221145187 400.96043620321393Q1644.634996678882 398.68086977686283 1639.9178740738585 398.68086977686283L1639.9178740738585 398.68086977686283Q1633.4177242640649 398.68086977686283 1627.8880829328173 401.36669556632603Q1622.3584416015697 404.02995139117183 1617.641318996546 408.2731047392313Z " fill="#b58863" transform="matrix(0.5238093502538176,0,0,0.5238093502538175,0,76.0582352999346)"/></g></svg>